# xmcd CD database file
#
# Track frame offsets:
#	150
#	30930
#	36725
#	70335
#	97582
#	130407
#	153770
#	161517
#	184900
#	218425
#	248322
#
# Disc length: 3728 seconds
#
# Revision: 0
# Processed by: cddbd v1.5.1PL0 Copyright (c) Steve Scherf et al.
# Submitted via: CDex 1.51
#
DISCID=810e8e0b
DTITLE=Frédéric Alarie - Tap Bass
DYEAR=2004
DGENRE=Jazz
TTITLE0=Brico
TTITLE1=I'm Old Fashion (Solo Guitar)
TTITLE2=No String's Attach
TTITLE3=Water Is Wide
TTITLE4=Ralph's Piano Waltz
TTITLE5=Lisa
TTITLE6=D.N (Solo Fretless 6 Cordes)
TTITLE7=Deux Eaux
TTITLE8=Tap Bass
TTITLE9=G.A.
TTITLE10=Time Remember
EXTD=YEAR: 2004
EXTT0=
EXTT1=
EXTT2=
EXTT3=
EXTT4=
EXTT5=
EXTT6=
EXTT7=
EXTT8=
EXTT9=
EXTT10=
PLAYORDER=
